<svg width="117" height="104" viewBox="0 0 117 104" fill="none" xmlns="http://www.w3.org/2000/svg">
<path d="M87.1619 3.46683C96.819 3.46683 106.476 3.46683 116.133 3.46683C116.133 23.2763 113.162 37.6384 110.686 46.8003C109.695 50.5145 108.705 52.9907 108.457 54.2288C105.733 62.1526 101.276 74.286 91.619 85.1812C88.8952 88.1526 84.6857 92.8574 78 96.8193C66.8571 103.505 51.2571 106.476 36.1523 101.524C17.3332 95.5812 2.47608 78.2479 0.247504 57.9431C-2.4763 33.4288 13.1237 8.91444 36.1523 1.98111C57.9428 -4.45698 78 5.94302 79.4857 9.16206C82.2095 14.8573 74.5333 42.3431 74.5333 42.3431C67.8476 33.6764 61.1619 30.4574 55.219 29.7145C53.7333 29.4669 42.0952 28.7241 34.9142 37.6384C27.9809 46.305 29.219 59.6764 36.1523 66.8574C42.0952 73.0479 51.5047 74.286 57.9428 73.0479C74.7809 69.3336 86.1714 41.3526 87.1619 3.46683Z" fill="#7165E3"/>
<path d="M84.1904 100.23V103.888H116.381V59.9915H112.357C112.357 59.9915 106.138 85.2317 84.1904 100.23Z" fill="#7165E3"/>
</svg>
