<svg width="266" height="266" viewBox="0 0 266 266" fill="none" xmlns="http://www.w3.org/2000/svg">
<path d="M57.3689 102.5C56.639 103.72 55.1114 104.237 53.7976 104.5C52.1188 104.844 50.3827 104.935 48.683 105.086L47.6951 105.329C47.3174 105.445 47.0017 105.707 46.8178 106.057C46.6339 106.407 46.5968 106.816 46.7149 107.193C47.3262 109.296 48.1672 111.326 49.2226 113.246L47.6586 114.81C47.2154 114.21 47.1946 113.16 46.6002 113.261C46.0293 112.69 45.3515 112.411 44.6503 113.175C43.2791 114.674 43.5007 117.789 45.5158 118.65L45.0648 120.894C44.7441 122.512 43.3255 123.679 41.676 123.681L42.0227 121.024C39.6765 122.21 37.015 119.645 37.2001 117.531C37.32 116.082 36.9915 115.081 35.9202 114.03C35.8498 113.96 36.2799 113.699 36.2147 113.629C35.9123 112.714 35.8706 111.645 36.1704 111.04C36.6918 109.961 38.2272 109.33 37.5207 108.152C37.2106 107.638 36.9845 107.079 36.8508 106.494C36.5638 104.925 36.9697 103.309 37.9639 102.062C39.0066 100.811 40.701 101.147 42.0852 100.704C43.7718 100.183 44.5513 98.3765 46.3161 97.8186C47.1946 97.5397 48.0079 97.6674 48.8864 97.8681C49.6293 98.0402 50.3644 98.2331 51.0943 98.4625C51.8242 98.6919 52.4655 98.8822 53.1798 98.6684C54.1234 98.4078 54.8507 97.5267 55.8804 97.5188C56.3942 97.507 56.8971 97.6676 57.3089 97.975C58.0701 99.3436 58.0753 101.33 57.3689 102.5Z" fill="#A399FF"/>
<path d="M25.1071 137.797C25.1071 137.797 -3.27308 106.494 38.5217 90.8741C40.9453 89.9853 43.4712 89.4055 46.0398 89.1484C52.7106 88.4394 67.4572 85.9186 69.1569 77.4048" stroke="#CCDDE2" stroke-width="1.2"/>
<path d="M144.243 93.9762V93.9684" stroke="#CCDDE2" stroke-width="1.2"/>
<path d="M69.7773 150.338V150.33" stroke="black" stroke-width="1.2"/>
<path d="M47.5882 114.601C47.3104 114.121 46.9799 113.673 46.6028 113.267C46.0319 112.696 45.3542 112.417 44.6529 113.18C43.2818 114.679 43.5033 117.795 45.5184 118.655L45.0674 120.899C44.7467 122.517 43.3281 123.684 41.6786 123.686" stroke="black" stroke-width="1.2" stroke-linecap="round" stroke-linejoin="round"/>
<path d="M40.4169 133.618C40.5316 132.747 40.8157 130.461 41.0894 128.282C41.3501 126.261 41.5821 124.317 41.6734 123.675L42.0227 121.024" stroke="black" stroke-width="1.2" stroke-linecap="round" stroke-linejoin="round"/>
<path d="M56.5113 107.495C56.5113 107.495 53.1824 107.659 52.5385 110.415" stroke="black" stroke-width="1.2"/>
<path d="M57.7208 114.776C58.628 114.752 59.8063 114.619 60.2338 113.699L57.9398 111.168C57.3802 110.548 57.0491 109.755 57.0013 108.921C56.9101 107.521 57.0743 105.3 55.7344 103.822" stroke="black" stroke-width="1.2"/>
<ellipse rx="1.01405" ry="0.860245" transform="matrix(0.670555 -0.74186 0.741858 0.670557 55.121 110.695)" fill="black"/>
<path d="M55.5337 131.402L53.8054 123.024" stroke="black" stroke-width="1.2"/>
<path d="M99.3462 169.109L88.2073 178.218C101.609 198.655 91.4658 202.406 91.4658 202.406C89.4984 202.783 87.5116 203.05 85.5145 203.206C75.8276 203.905 65.8905 201.405 57.9059 195.806C41.7437 184.466 27.667 161.771 35.1746 142.012C35.8063 140.34 36.5781 138.725 37.4816 137.184C38.2602 135.844 39.2516 134.639 40.4169 133.618C44.5829 129.971 50.4998 129.105 55.5363 131.405C56.4803 131.835 57.373 132.371 58.1979 133C62.4183 136.23 66.2555 140.82 69.5635 145.638C72.5008 149.994 75.1438 154.542 77.4752 159.25C78.119 160.536 78.703 161.75 79.2191 162.863C83.8983 160.971 87.8215 157.757 91.4711 154.285C87.0577 162.522 99.3462 169.109 99.3462 169.109Z" fill="#353642"/>
<path d="M91.5519 175.772C91.3381 175.937 91.1166 176.109 90.895 176.273" stroke="black" stroke-width="1.2"/>
<path d="M58.6202 141.146C61.5746 146.803 64.5289 152.47 67.4833 158.148C69.7121 162.433 73.4789 165.079 78.7838 163.049C84.5552 160.838 89.211 156.612 93.5174 152.306C97.8238 148 102.188 143.881 108.405 142.77C116.442 141.334 124.046 145.713 129.52 151.248C130.387 152.116 130.543 153.467 129.898 154.511C129.491 155.168 128.818 155.614 128.055 155.735C127.292 155.856 126.515 155.638 125.925 155.14C123.331 152.926 119.111 149.725 116.176 149.684" stroke="black" stroke-width="1.2"/>
<path d="M108.168 157.277C109.07 157.879 110.321 158.547 111.364 158.547" stroke="black" stroke-width="1.2"/>
<path d="M119.726 150.781C121.65 151.732 122.351 154.517 120.993 156.18C119.271 158.317 117.113 160.062 114.664 161.299C111.984 162.637 110.263 161.821 107.625 160.189" stroke="black" stroke-width="1.2"/>
<path d="M115.274 153.276C115.274 153.276 119.085 154.219 118.983 157.918C118.976 158.076 118.948 158.232 118.9 158.382" stroke="black" stroke-width="1.2"/>
<path d="M112.581 155.606C112.581 155.606 117.693 158.909 115.261 160.987" stroke="black" stroke-width="1.2"/>
<path d="M211.329 168.552C205.307 185.102 188.449 185.569 186.52 185.569C187.328 183.866 187.547 180.876 185.777 175.637C188.206 172.09 188.157 167.402 185.655 163.906C185.678 163.885 185.691 163.857 185.712 163.836C186.555 163.784 187.392 163.658 188.212 163.458C191.121 162.764 196.856 161.242 201.408 159.099C204.494 157.642 208.094 159.978 207.831 163.385C207.831 163.429 207.831 163.471 207.815 163.52C209.038 163.52 210.184 164.117 210.885 165.119C211.585 166.122 211.751 167.404 211.329 168.552Z" fill="#A399FF"/>
<path d="M134.056 207.369C132.028 210.849 128.871 213.813 125.821 216.399C115.083 225.487 101.056 230.101 86.9796 230.281C72.8559 230.101 58.7766 225.471 47.9896 216.465C13.9057 188.003 20.0656 154.399 25.579 138.839C25.7732 138.301 26.036 137.79 26.361 137.319C27.233 136.044 28.6083 135.202 30.1409 135.005C33.0344 135.403 35.6621 137.804 35.1981 141.522C35.1981 141.665 35.1407 141.863 35.1277 142.007C27.6253 161.766 41.7073 184.461 57.859 195.8C65.1867 200.944 74.1593 203.472 83.0746 203.308H83.1762C83.9409 203.292 84.7047 203.257 85.4676 203.201C90.4753 202.836 95.3422 201.637 100.162 200.185C105.819 198.493 111.413 196.442 117.065 195.005C119.051 194.5 121.043 194.012 123.045 193.556C124.2 193.319 125.382 193.237 126.559 193.314C133.501 193.783 138.378 199.956 134.056 207.369Z" fill="#D7E8F0"/>
<path d="M135.771 207.369C133.743 210.849 130.584 213.813 127.534 216.399C116.369 225.857 101.638 230.476 86.9717 230.281C72.8481 230.101 58.7688 225.471 47.9818 216.465C13.9057 188.003 20.0656 154.399 25.579 138.839C25.7732 138.301 26.036 137.79 26.361 137.319C27.233 136.044 28.6083 135.202 30.1409 135.005C33.0344 135.403 35.6621 137.804 35.1981 141.522C35.1981 141.665 35.1407 141.863 35.1277 142.007C27.6253 161.766 41.7073 184.461 57.859 195.8C65.1867 200.944 74.1593 203.472 83.0746 203.308H83.1762C84.5196 203.329 85.8552 203.293 87.1829 203.201C92.1906 202.836 97.0548 201.637 101.877 200.185C107.534 198.493 113.128 196.442 118.78 195.005C120.764 194.5 122.758 194.012 124.757 193.556C125.352 193.434 125.953 193.353 126.559 193.314C134.363 192.79 140.442 199.356 135.771 207.369Z" fill="#D7E8F0"/>
<path d="M89.3257 230.234L92.7562 235.088C92.7562 235.088 113.514 235.896 124.875 245.431C126.976 247.196 125.719 250.624 122.977 250.624C122.289 250.626 121.623 250.384 121.097 249.941C118.415 247.689 108.168 240.609 84.9879 240.395C62.4026 240.184 53.7402 247.173 51.3446 249.719C50.7923 250.301 50.0244 250.628 49.2226 250.624H48.7769C45.9615 250.624 44.7702 247.068 46.9938 245.343C56.4774 237.968 77.7358 235.617 77.7358 235.617L81.3645 230.142" fill="#353642"/>
<path d="M181.192 203.318C181.192 203.318 187.55 209.358 185.566 228.083C185.422 229.42 184.957 230.702 184.211 231.821L183.52 232.864C182.387 234.561 180.679 235.79 178.71 236.326C174.558 237.46 167.024 240.087 162.371 245.066C160.405 247.175 161.868 250.611 164.751 250.611C165.843 250.614 166.864 250.07 167.47 249.162C169.365 246.31 175.102 240.254 188.942 240.382C204.551 240.525 210.839 246.732 212.854 249.407C213.419 250.163 214.306 250.609 215.25 250.611C216.442 250.609 217.519 249.9 217.994 248.806C218.468 247.713 218.25 246.442 217.437 245.569C211.35 238.956 203.905 236.49 199.797 235.575C197.733 235.13 195.909 233.93 194.685 232.21C193.747 230.883 193.214 229.313 193.149 227.689C192.92 221.884 192.8 207.792 196.734 203.324" fill="#353642"/>
<path d="M100.214 200.193C111.395 194.765 123.529 191.205 135.461 187.852C147.468 184.479 159.592 181.536 171.753 178.77C176.612 177.667 181.515 176.685 186.351 175.441" stroke="black" stroke-width="1.2"/>
<path d="M110.704 158.471H110.712H110.717" stroke="black" stroke-width="1.2"/>
<path d="M109.45 157.765C108.749 158.458 106.246 162.162 105.618 162.827C102.167 166.526 98.5005 170.018 94.6383 173.285C93.666 174.094 92.6363 174.928 91.5519 175.772C91.3381 175.937 91.1165 176.109 90.895 176.273C83.5438 181.851 73.9508 187.221 65.0876 183.78C64.853 183.694 64.6236 183.595 64.3968 183.494C50.8024 177.407 41.3006 162.162 40.4716 147.447C40.4429 146.967 40.4273 146.49 40.4221 146.018C40.3491 141.996 40.9435 137.974 44.8015 135.852" stroke="black" stroke-width="1.2"/>
<path d="M35.1955 141.954L35.2502 141.527C36.1157 134.588 26.262 132.247 23.9237 138.839C18.4129 154.397 12.2504 187.993 46.3421 216.459C68.3461 234.84 103.971 234.968 125.891 216.399C128.941 213.816 132.098 210.847 134.129 207.367C139.267 198.566 131.42 191.51 122.57 193.676" stroke="black" stroke-width="1.2"/>
<path d="M89.3257 230.234L92.7562 235.087C92.7562 235.087 113.514 235.896 124.875 245.431C126.976 247.196 125.719 250.624 122.977 250.624C122.289 250.626 121.623 250.384 121.097 249.941C118.415 247.689 108.168 240.609 84.9879 240.395C62.4026 240.184 53.7402 247.173 51.3446 249.719C50.7923 250.301 50.0244 250.628 49.2226 250.624H48.7769C45.9615 250.624 44.7702 247.068 46.9938 245.343C56.4774 237.968 77.7358 235.617 77.7358 235.617L81.3645 230.142" stroke="black" stroke-width="1.2"/>
<path d="M77.7358 158.833C86.4373 156.487 90.0217 144.212 91.4658 135.959" stroke="black" stroke-width="1.2"/>
<path d="M69.5557 145.646C74.4711 145.002 78.6991 141.851 80.7206 137.325C81.1424 136.427 81.1134 135.382 80.6424 134.509C79.6935 132.752 78.278 130.716 78.6143 128.61C78.8567 127.124 80.0793 126.079 81.4818 125.743C82.1927 125.556 82.9412 125.569 83.6454 125.779C84.5001 126.021 85.2007 126.635 85.5536 127.45C85.8951 128.25 85.4885 129.043 84.8602 129.564C84.232 130.086 83.4969 130.271 82.7305 130.479C82.6314 130.508 82.3603 130.565 82.0605 130.623" stroke="black" stroke-width="1.2"/>
<path d="M186.34 175.436C186.34 175.436 203.493 171.844 206.715 166.669C207.319 165.726 207.696 164.655 207.815 163.541" stroke="black" stroke-width="1.2"/>
<path d="M101.937 166.599C131.856 163.421 165.624 163.891 165.624 163.891H184.576C185.8 163.892 187.021 163.749 188.212 163.463C191.121 162.77 196.856 161.25 201.408 159.104C204.494 157.647 208.094 159.983 207.831 163.393C207.831 163.434 207.831 163.479 207.815 163.528C209.036 163.529 210.179 164.124 210.879 165.124C211.579 166.124 211.747 167.402 211.329 168.549C204.937 186.116 186.34 185.566 186.34 185.566C183.963 185.636 181.591 185.73 179.211 185.853C158.244 186.872 137.463 189.815 117.119 195.011C111.468 196.447 105.874 198.496 100.217 200.19C95.3943 201.647 90.5222 202.839 85.5145 203.204C75.8277 203.905 65.8905 201.402 57.9059 195.803C40.4169 183.53 25.3652 157.942 37.4816 137.171C41.7594 129.841 51.4463 127.833 58.1979 133C67.7205 140.286 75.3271 154.48 79.2295 162.853" stroke="black" stroke-width="1.2"/>
<path d="M210.933 203.318H169.297" stroke="black" stroke-width="1.2"/>
<path d="M160.893 194.909C160.906 190.269 164.663 186.511 169.302 186.497H210.943C215.584 186.51 219.343 190.268 219.355 194.909" stroke="black" stroke-width="1.2"/>
<path d="M220.174 197.891C220.178 199.332 219.607 200.716 218.588 201.734C217.569 202.753 216.185 203.323 214.744 203.318H165.476C162.91 203.076 161.011 200.823 161.206 198.254C161.4 195.684 163.617 193.743 166.19 193.89H215.458C217.234 193.887 218.897 194.755 219.911 196.212C220.085 196.755 220.174 197.321 220.174 197.891Z" fill="#D7E8F0"/>
<path fill-rule="evenodd" clip-rule="evenodd" d="M220.174 197.891C220.178 199.332 219.607 200.716 218.588 201.734C217.569 202.753 216.185 203.323 214.744 203.318H165.476C163.508 203.362 161.671 202.336 160.674 200.639C159.677 198.942 159.677 196.838 160.674 195.141C161.671 193.443 163.508 192.418 165.476 192.461H214.744C217.097 192.46 219.183 193.974 219.911 196.212C220.085 196.755 220.174 197.321 220.174 197.891V197.891Z" stroke="black" stroke-width="1.2"/>
<path d="M91.372 135.766L91.273 136.603C91.1793 137.388 90.5134 137.981 89.7219 137.982H84.3076C83.5161 137.981 82.8502 137.388 82.7565 136.603L82.0579 130.607C82.3577 130.55 82.6288 130.492 82.7279 130.464C83.4943 130.255 84.2372 130.078 84.8576 129.549C85.478 129.019 85.9003 128.245 85.551 127.434C85.1981 126.619 84.4975 126.006 83.6428 125.764C82.9386 125.553 82.1901 125.541 81.4792 125.727L81.315 124.299C81.2661 123.857 81.4073 123.416 81.7032 123.084C81.9991 122.753 82.4219 122.563 82.866 122.562H91.1739C91.6176 122.564 92.0397 122.754 92.335 123.085C92.6303 123.417 92.7711 123.857 92.7223 124.299L92.5294 125.928" stroke="black" stroke-width="1.2"/>
<path d="M92.0941 129.653L92.0863 129.71" stroke="black" stroke-width="1.2"/>
<path d="M91.6874 133.096V133.073" stroke="black" stroke-width="1.2"/>
<path d="M91.7656 133.096C91.7423 133.093 91.7185 133.093 91.6952 133.096C91.6623 133.093 91.6291 133.093 91.5962 133.096C90.8957 133.099 90.3139 133.637 90.2575 134.336C90.201 135.034 90.6888 135.659 91.3798 135.774C91.5235 135.802 91.6715 135.802 91.8152 135.774C92.4659 135.67 93.0598 135.341 93.4939 134.846C94.0725 133.894 94.4743 132.846 94.68 131.751C94.6836 131.74 94.6836 131.728 94.68 131.717C94.8391 130.911 94.8995 130.088 94.8599 129.267C94.8599 128.915 94.8156 128.566 94.7739 128.224C94.6105 127.051 93.6992 126.123 92.5294 125.938C92.5007 125.938 92.4669 125.938 92.4382 125.923C91.3433 125.787 89.8079 126.201 89.5238 127.437C89.2631 128.553 90.4727 129.51 91.4658 129.596C91.4658 129.596 91.7265 129.629 92.0941 129.653C92.8292 129.702 94.0518 129.695 94.8599 129.267C94.9788 129.205 95.0907 129.131 95.1936 129.045" stroke="black" stroke-width="1.2"/>
<path d="M92.9074 129.713H92.7275H91.3381H90.7255C89.8656 129.716 89.1575 130.39 89.1119 131.248C89.0701 132.081 89.6644 132.81 90.4883 132.937C92.287 133.227 94.3411 133.287 94.6931 131.676" stroke="black" stroke-width="1.2"/>
<path d="M181.192 203.318C181.192 203.318 187.55 209.358 185.566 228.083C185.422 229.42 184.957 230.702 184.211 231.821L183.52 232.864C182.387 234.56 180.679 235.79 178.71 236.326C174.558 237.46 167.024 240.087 162.371 245.066C160.405 247.175 161.868 250.611 164.751 250.611C165.843 250.614 166.864 250.07 167.47 249.162C169.365 246.31 175.102 240.254 188.942 240.382C204.551 240.525 210.839 246.732 212.854 249.407C213.419 250.163 214.306 250.609 215.25 250.611C216.442 250.609 217.519 249.9 217.994 248.806C218.468 247.713 218.25 246.442 217.437 245.569C211.35 238.956 203.905 236.49 199.797 235.575C197.733 235.13 195.909 233.93 194.685 232.21C193.747 230.883 193.214 229.313 193.149 227.689C192.92 221.884 192.8 207.792 196.734 203.324" stroke="black" stroke-width="1.2"/>
<path fill-rule="evenodd" clip-rule="evenodd" d="M167.975 159.553V159.975C167.975 162.866 165.645 163.364 163.633 163.414L124.684 164.321C122.977 164.362 121.54 162.871 121.504 161.005V160.927C121.504 159.102 122.849 157.577 124.533 157.538C124.533 157.538 146.323 156.923 163.195 156.459C163.518 157.48 164.3 158.268 165.28 158.886C166.092 159.371 167.031 159.603 167.975 159.553V159.553Z" stroke="black" stroke-width="1.2"/>
<path fill-rule="evenodd" clip-rule="evenodd" d="M188.679 118.339C188.681 118.815 188.572 119.284 188.361 119.711L170.942 155.418C170.528 156.258 169.765 156.871 168.857 157.095C168.137 157.279 167.376 157.201 166.709 156.876C165.617 156.338 164.928 155.225 164.933 154.008C164.935 153.862 164.945 153.715 164.965 153.57C165.011 153.247 165.108 152.933 165.251 152.64L182.667 116.926C183.315 115.607 184.788 114.908 186.219 115.241C187.651 115.574 188.664 116.851 188.663 118.321L188.679 118.339Z" stroke="black" stroke-width="1.2"/>
<path d="M47.6612 114.815C47.6403 114.742 47.6117 114.672 47.5882 114.601C47.5647 114.531 47.5308 114.45 47.51 114.372" stroke="black" stroke-width="1.2" stroke-linecap="round" stroke-linejoin="round"/>
<path d="M47.6612 114.818L48.1956 114.281L49.2174 113.246" stroke="black" stroke-width="1.2" stroke-linecap="round" stroke-linejoin="round"/>
<path d="M53.6751 116.23C53.6751 116.23 54.3607 118.277 56.9805 118.415" stroke="black" stroke-width="1.2"/>
<path d="M42.0227 121.024C39.6766 122.21 37.015 119.645 37.2001 117.531C37.32 116.082 36.9916 115.081 35.9202 114.03C35.8498 113.96 35.7846 113.887 35.722 113.817C34.8875 112.908 34.6912 111.583 35.2267 110.472C35.7142 109.338 36.7648 108.673 36.0349 107.451C35.7146 106.922 35.4805 106.346 35.3414 105.743C35.0469 104.127 35.4661 102.463 36.491 101.179C37.565 99.8754 39.3142 100.235 40.7506 99.7789C42.4789 99.2289 43.287 97.3703 45.1013 96.7994C46.0085 96.5152 46.8505 96.643 47.7576 96.8489C48.5214 97.0288 49.2878 97.2295 50.0308 97.4641C50.7737 97.6987 51.4515 97.8994 52.1944 97.6779C53.1667 97.3937 53.9149 96.4996 54.9733 96.4918C56.0316 96.484 56.8449 97.107 57.3194 97.9776C58.0701 99.3436 58.0753 101.33 57.3689 102.508C56.639 103.728 55.1114 104.244 53.7976 104.508C52.1188 104.852 50.3827 104.943 48.683 105.094L47.6951 105.337C46.9125 105.579 46.4741 106.41 46.7149 107.193C47.3262 109.296 48.1672 111.326 49.2227 113.246" stroke="black" stroke-width="1.2"/>
<path d="M49.2174 121.324C49.2174 121.324 54.3893 125.112 57.3376 123.024C60.2859 120.936 58.6202 114.815 58.6202 114.815" stroke="black" stroke-width="1.2" stroke-linecap="round" stroke-linejoin="round"/>
<path d="M85.7622 119.948C85.7622 119.948 83.5646 118.462 84.9619 116.945C86.3591 115.428 84.4979 113.426 84.4979 113.426" stroke="black" stroke-width="1.2"/>
<path d="M87.7903 120.206C87.7903 120.206 89.2449 119.223 88.3116 118.217C87.3784 117.211 88.6218 115.871 88.6218 115.871" stroke="black" stroke-width="1.2"/>
<ellipse cx="97.8134" cy="77.3917" rx="28.6539" ry="28.6539" stroke="#CCDDE2" stroke-width="1.2"/>
<ellipse cx="97.8134" cy="77.3917" rx="15.7373" ry="15.7373" stroke="#CCDDE2" stroke-width="1.2"/>
<circle cx="97.8134" cy="77.3917" r="2.69804" stroke="#CCDDE2" stroke-width="1.2"/>
<path d="M103.4 68.3826L99.2341 75.0977" stroke="#CCDDE2" stroke-width="1.2"/>
<path d="M97.8134 61.6545V64.4542" stroke="#CCDDE2" stroke-width="1.2"/>
<path d="M113.551 77.3918H110.897" stroke="#CCDDE2" stroke-width="1.2"/>
<path d="M97.8134 93.1316V90.4101" stroke="#CCDDE2" stroke-width="1.2"/>
<path d="M82.0735 77.3918H84.4666" stroke="#CCDDE2" stroke-width="1.2"/>
<path d="M124.465 66.8577C124.465 66.8577 134.249 97.1174 171.909 95.4829C184.422 93.9189 199.314 95.4829 212.575 112.948C232.734 139.517 224.639 169.115 215.479 187.902" stroke="#CCDDE2" stroke-width="1.2"/>
<path d="M25.2036 250.611H250.306" stroke="black" stroke-width="1.2"/>
</svg>
